<mxfile host="app.diagrams.net" modified="2023-11-30T13:13:08.012Z" agent="Mozilla/5.0 (Macintosh; Intel Mac OS X 10_15_7) AppleWebKit/537.36 (KHTML, like Gecko) Chrome/118.0.0.0 Safari/537.36" version="22.1.5" etag="CHHKF0XBKLWV5AK6byEj" type="github">
  <diagram name="Pagina-1" id="jGf_04mg0V8zM4tONkqc">
    <mxGraphModel>
      <root>
        <mxCell id="0" />
        <mxCell id="1" parent="0" />
      </root>
    </mxGraphModel>
  </diagram>
</mxfile>
